# xmcd CD database file
#
# Track frame offsets:
#	150
#	17589
#	39336
#	55582
#	73963
#	100531
#	120525
#	132824
#	152108
#	177423
#	198521
#
# Disc length: 2978 seconds
#
# Revision: 0
# Processed by: cddbd v1.5PL3 Copyright (c) Steve Scherf et al.
# Submitted via: CDex 1.50beta10
#
DISCID=8c0ba00b
DTITLE=Tad Robinson - Did You Ever Wonder
DYEAR=2004
DGENRE=Blues
TTITLE0=They Say
TTITLE1=Did You Ever Wonder?
TTITLE2=The Bitter And The Sweet
TTITLE3=Too Late To Turn Back Now
TTITLE4=Woman Trouble
TTITLE5=Your Love Is Amazing
TTITLE6=Suffering With The Blues
TTITLE7=Welcome Home
TTITLE8=Pockets Full Of Nothing
TTITLE9=My Love Is Real
TTITLE10=Dying From the Blues
EXTD=YEAR: 2004
EXTT0=
EXTT1=
EXTT2=
EXTT3=
EXTT4=
EXTT5=
EXTT6=
EXTT7=
EXTT8=
EXTT9=
EXTT10=
PLAYORDER=
